<svg width="41" height="40" viewBox="0 0 41 40" fill="none" xmlns="http://www.w3.org/2000/svg">
<path d="M17.938 0.137398C16.2282 0.305328 14.6558 0.671722 13.0528 1.22131C7.81641 3.06855 3.31281 7.40421 1.29765 12.5643C0.198463 15.4038 0.0152664 16.4267 0 19.8158C0 21.7852 0.0763321 23.1592 0.21373 23.8614C1.64877 30.9756 6.65616 36.6699 13.5108 38.9599C17.6327 40.3339 22.3806 40.3491 26.5178 38.9904C32.6854 36.9753 37.6623 31.9374 39.3874 25.9834C40.0743 23.6019 40.2728 21.9989 40.1659 19.2815C40.0591 15.8313 39.54 13.8314 38.0439 10.9002C34.9448 4.83945 29.1436 0.885452 22.1821 0.137398C20.5181 -0.0457993 19.8158 -0.0457993 17.938 0.137398ZM23.2202 2.33576C29.2963 3.40441 34.5479 7.54161 36.8226 13.0528C40.5171 21.9684 36.8073 31.9221 28.2429 36.0593C25.6171 37.3264 23.8003 37.7844 20.8387 37.9218C16.7778 38.105 12.549 36.8684 9.25145 34.5174C6.47296 32.5175 4.01507 29.1741 2.88535 25.8308C1.37398 21.3119 1.72511 16.1824 3.83187 11.9841C6.30503 7.05309 11.2971 3.34335 16.7931 2.33576C18.3044 2.0457 21.602 2.06097 23.2202 2.33576Z" fill="#F8FAFC"/>
<path d="M18.3196 8.1524C17.5716 8.62566 15.19 10.0607 13.0527 11.3583C8.77814 13.9384 8.54914 14.1063 8.32014 14.7017C8.22855 14.946 8.16748 17.3733 8.16748 20.9762C8.16748 27.266 8.16748 27.2812 8.96133 28.014C9.40406 28.4415 19.4341 34.4564 19.8616 34.5633C20.3196 34.6854 21.5409 34.029 26.9452 30.7772C31.174 28.2277 31.6167 27.9224 31.7846 27.4492C32.0594 26.64 32.0594 15.404 31.7694 14.7322C31.4946 14.0758 31.174 13.8315 26.5635 11.0378C24.3804 9.72484 22.121 8.3356 21.5409 7.9692C20.9607 7.60281 20.3043 7.29748 20.0906 7.29748C19.8768 7.29748 19.083 7.67914 18.3196 8.1524ZM21.2966 10.2439C23.1133 11.2973 28.6397 14.717 29.3115 15.1902L29.9221 15.6329L29.9679 17.068C29.9985 17.8618 29.9679 20.0449 29.9221 21.9227L29.8153 25.3119L29.3267 25.0218C29.0672 24.8691 27.0978 23.6631 24.93 22.3502C22.7774 21.0373 20.8233 19.8923 20.5638 19.8007C19.9379 19.587 19.7242 19.6785 14.8236 22.625C12.4879 24.0142 10.5185 25.1592 10.4574 25.1592C10.2437 25.1592 10.2284 24.6707 10.2742 19.9381L10.32 15.404L11.4192 14.7628C12.0299 14.3964 14.1977 13.0987 16.2587 11.8469C18.3196 10.6103 20.0295 9.58744 20.0753 9.58744C20.1211 9.58744 20.6707 9.89277 21.2966 10.2439ZM21.6172 22.7471C23.3423 23.8005 26.304 25.5867 27.678 26.3652C28.2734 26.7164 28.7771 27.0675 28.7771 27.1286C28.7771 27.2812 20.3501 32.3344 20.0906 32.3344C19.999 32.3344 19.4188 32.0291 18.8082 31.6322C18.2128 31.2505 16.4571 30.2124 14.9305 29.3117C13.3886 28.4109 11.9536 27.5408 11.7246 27.3576L11.3124 27.0522L12.5337 26.3805C13.1901 26.0141 14.9305 25.0065 16.3655 24.1363C19.1135 22.5028 20.0906 21.9532 20.2432 21.9532C20.289 21.9532 20.9149 22.3044 21.6172 22.7471Z" fill="#F8FAFC"/>
</svg>
